<svg xmlns="http://www.w3.org/2000/svg" width="15" height="17" viewBox="0 0 15 17" fill="none">
  <path d="M2.8125 17C2.29688 17 1.85563 16.8152 1.48875 16.4456C1.12188 16.076 0.938128 15.6312 0.937503 15.1111V2.83333C0.671878 2.83333 0.449378 2.74267 0.270003 2.56133C0.0906283 2.38 0.000628232 2.15585 3.23275e-06 1.88889C-0.000621767 1.62193 0.0893783 1.39778 0.270003 1.21644C0.450628 1.03511 0.673128 0.944444 0.937503 0.944444H4.6875C4.6875 0.676852 4.7775 0.452704 4.9575 0.272C5.1375 0.0912964 5.36 0.00062963 5.625 0H9.375C9.64062 0 9.86344 0.0906667 10.0434 0.272C10.2234 0.453333 10.3131 0.677481 10.3125 0.944444H14.0625C14.3281 0.944444 14.5509 1.03511 14.7309 1.21644C14.9109 1.39778 15.0006 1.62193 15 1.88889C14.9994 2.15585 14.9094 2.38031 14.73 2.56228C14.5506 2.74424 14.3281 2.83459 14.0625 2.83333V15.1111C14.0625 15.6306 13.8791 16.0754 13.5122 16.4456C13.1453 16.8158 12.7037 17.0006 12.1875 17H2.8125ZM12.1875 2.83333H2.8125V15.1111H12.1875V2.83333ZM6.29344 12.9512C6.47281 12.7698 6.5625 12.5454 6.5625 12.2778V5.66667C6.5625 5.39907 6.4725 5.17493 6.2925 4.99422C6.1125 4.81352 5.89 4.72285 5.625 4.72222C5.36 4.72159 5.1375 4.81226 4.9575 4.99422C4.7775 5.17618 4.6875 5.40033 4.6875 5.66667V12.2778C4.6875 12.5454 4.7775 12.7698 4.9575 12.9512C5.1375 13.1325 5.36 13.2228 5.625 13.2222C5.89 13.2216 6.11281 13.1319 6.29344 12.9512ZM10.0434 12.9502C10.2228 12.7701 10.3125 12.546 10.3125 12.2778V5.66667C10.3125 5.39907 10.2225 5.17493 10.0425 4.99422C9.8625 4.81352 9.64 4.72285 9.375 4.72222C9.11 4.72159 8.8875 4.81226 8.7075 4.99422C8.5275 5.17618 8.4375 5.40033 8.4375 5.66667V12.2778C8.4375 12.5454 8.5275 12.7698 8.7075 12.9512C8.8875 13.1325 9.11 13.2228 9.375 13.2222C9.64 13.2216 9.86281 13.1309 10.0434 12.9502Z" fill="#B45F5F"/>
</svg>