<svg width="20" height="20" viewBox="0 0 20 20" fill="none" xmlns="http://www.w3.org/2000/svg">
<path d="M13.6878 3.83747L14.5128 3.01247C14.841 2.68426 15.2862 2.49988 15.7503 2.49988C16.2145 2.49988 16.6596 2.68426 16.9878 3.01247C17.316 3.34067 17.5004 3.78581 17.5004 4.24997C17.5004 4.71412 17.316 5.15926 16.9878 5.48747L16.1628 6.31247M13.6878 3.83747L8.13783 9.38747C7.71505 9.81052 7.4152 10.3405 7.27033 10.9208L6.66699 13.3333L9.08033 12.73C9.6607 12.5849 10.1907 12.2847 10.6137 11.8616L16.1628 6.31247M13.6878 3.83747L16.1628 6.31247" stroke="white" stroke-width="1.25" stroke-linejoin="round"/>
<path d="M15.8333 11.25C15.8333 13.99 15.8333 15.3591 15.0767 16.2816C14.9383 16.4503 14.7836 16.6049 14.615 16.7433C13.6917 17.5 12.3233 17.5 9.58333 17.5H9.16667C6.02417 17.5 4.4525 17.5 3.47667 16.5233C2.50083 15.5466 2.5 13.9758 2.5 10.8333V10.4166C2.5 7.67746 2.5 6.30746 3.25667 5.38496C3.39556 5.21607 3.54944 5.06218 3.71833 4.92329C4.64167 4.16663 6.01 4.16663 8.75 4.16663" stroke="white" stroke-width="1.25" stroke-linecap="round" stroke-linejoin="round"/>
</svg>
