<svg width="58" height="44" viewBox="0 0 58 44" fill="none" xmlns="http://www.w3.org/2000/svg">
<path d="M37.9999 19.3333C37.9999 18.1077 37.7585 16.894 37.2895 15.7616C36.8204 14.6293 36.1329 13.6004 35.2662 12.7337C34.3996 11.867 33.3707 11.1795 32.2383 10.7105C31.1059 10.2414 29.8923 10 28.6666 10C27.4409 10 26.2272 10.2414 25.0949 10.7105C23.9625 11.1795 22.9336 11.867 22.0669 12.7337C21.2002 13.6004 20.5128 14.6293 20.0437 15.7616C19.5747 16.894 19.3333 18.1077 19.3333 19.3333C19.3333 21.8087 20.3166 24.1827 22.0669 25.933C23.8173 27.6833 26.1912 28.6667 28.6666 28.6667C31.1419 28.6667 33.5159 27.6833 35.2662 25.933C37.0166 24.1827 37.9999 21.8087 37.9999 19.3333Z" stroke="white" stroke-width="4" stroke-linecap="round" stroke-linejoin="round"/>
<path d="M37.9546 20.2667C38.8151 20.5316 39.7191 20.6649 40.6666 20.6667M40.6666 20.6667C42.4727 20.6664 44.24 20.1421 45.754 19.1573C47.268 18.1726 48.4638 16.7697 49.1964 15.1188C49.9289 13.468 50.1667 11.64 49.8809 9.85665C49.5952 8.07329 48.7982 6.41115 47.5865 5.07181C46.3748 3.73246 44.8005 2.77344 43.0546 2.31105C41.3087 1.84866 39.4661 1.90277 37.7504 2.46682C36.0346 3.03086 34.5194 4.08061 33.3884 5.48876C32.2574 6.8969 31.5592 8.60295 31.3786 10.4M40.6666 20.6667C48.768 20.6667 55.3333 26.6373 55.3333 34M25.9546 10.4C25.7618 8.48646 24.9826 6.67919 23.7236 5.22538C22.4645 3.77156 20.7871 2.74219 18.9207 2.27806C17.0543 1.81393 15.0901 1.93769 13.2968 2.63243C11.5034 3.32716 9.96846 4.55894 8.90185 6.1593C7.83523 7.75965 7.28904 9.65043 7.33798 11.573C7.38693 13.4956 8.02861 15.3562 9.17526 16.9002C10.3219 18.4442 11.9176 19.5963 13.7439 20.1989C15.5703 20.8015 17.5383 20.8252 19.3786 20.2667M43.3333 42C43.3333 34.6373 36.768 28.6667 28.6666 28.6667C20.5653 28.6667 14 34.6373 14 42" stroke="white" stroke-width="4" stroke-linecap="round" stroke-linejoin="round"/>
<path d="M16.6667 20.6667C8.56533 20.6667 2 26.6373 2 34" stroke="white" stroke-width="4" stroke-linecap="round" stroke-linejoin="round"/>
</svg>
